<svg xmlns="http://www.w3.org/2000/svg" width="39" height="12"><defs><linearGradient id="a" x1="100%" x2="2.053%" y1="54.841%" y2="45.357%"><stop offset="0%" stop-color="#6C6CFF"/><stop offset="100%" stop-color="#3E3EFF"/></linearGradient></defs><g fill="none" fill-rule="evenodd"><path fill="url(#a)" d="M36.718 0c1.02 0 1.846.827 1.846 1.846v8.308c0 1.02-.827 1.846-1.846 1.846H3.634l-.025-.001L0 12c.22-.224.44-.475.66-.753.33-.417 1.123-1.858 1.127-2.243V1.846C1.788.826 2.615 0 3.635 0h33.084Z"/><g fill="#FFF" fill-rule="nonzero"><path d="M10.863 9.294c.002.006.002.01 0 .014a.01.01 0 0 1-.01.004h-.831c-.008 0-.014-.001-.018-.004a.032.032 0 0 1-.009-.014l-2.22-5.877h.346l-2.22 5.877a.032.032 0 0 1-.009.014c-.004.003-.01.004-.017.004h-.832c-.004 0-.007-.001-.01-.004-.001-.003-.001-.008.001-.014l2.507-6.64c0-.012.009-.018.026-.018h.763c.017 0 .026.006.026.018l2.507 6.64Zm-1.347-2.75v.788H6.381v-.788h3.135ZM13.32 9.294c0 .006-.002.01-.005.014-.003.003-.007.004-.013.004h-.782c-.006 0-.01-.001-.013-.004-.003-.003-.005-.008-.005-.014v-6.64c0-.006.002-.01.005-.013.003-.003.007-.005.013-.005h.782c.006 0 .01.002.013.005.003.003.005.007.005.013v6.64ZM24.499 2.345c.017 0 .025.009.025.026v.69c0 .018-.008.026-.025.026h-7.304c-.017 0-.026-.008-.026-.025V2.37c0-.017.009-.026.026-.026h7.304Zm.367 6.356c.017 0 .025.009.025.025v.692c0 .016-.008.025-.025.025h-8.039c-.017 0-.025-.009-.025-.025v-.692c0-.016.008-.025.025-.025h8.04ZM21.21 2.716c.016 0 .025.009.025.025v6.306c0 .017-.009.025-.025.025h-.724c-.017 0-.025-.008-.025-.025V2.74c0-.016.008-.025.025-.025h.724ZM33.73 1.958c.008 0 .014.002.018.007.004.004.007.01.007.019v5.743c0 .017-.009.026-.026.026h-.69c-.018 0-.026-.009-.026-.026V2.624h-4.55v5.103c0 .017-.009.026-.026.026h-.69c-.018 0-.026-.009-.026-.026V1.984c0-.009.002-.015.006-.02.004-.004.01-.006.02-.006h5.982Zm1.04 5.463c.016 0 .025.009.025.026v.626c0 .017-.009.025-.025.025h-8.046c-.017 0-.025-.008-.025-.025v-.626c0-.017.008-.026.025-.026h8.046Zm-1.417-4.07c.017 0 .025.009.025.026v.572c0 .017-.008.025-.025.025H28.14c-.017 0-.025-.008-.025-.025v-.572c0-.017.008-.025.025-.025h5.213Zm0 1.354c.017 0 .025.009.025.025v.573c0 .017-.008.025-.025.025H28.14c-.017 0-.025-.008-.025-.025V4.73c0-.016.008-.025.025-.025h5.213Zm0 1.372c.017 0 .025.008.025.025v.572c0 .017-.008.026-.025.026H28.14c-.017 0-.025-.009-.025-.026v-.572c0-.017.008-.025.025-.025h5.213Zm-3.807 2.136c.016-.008.028-.005.038.01l.317.554c.008.013.004.024-.013.034-.4.23-.828.435-1.282.617a11.466 11.466 0 0 1-1.412.462.042.042 0 0 1-.01-.019l-.15-.619c-.003-.017.004-.026.02-.029a9.918 9.918 0 0 0 2.492-1.01Zm2.401 0c.372.216.766.408 1.182.575.416.168.852.311 1.31.43.013.01.02.02.021.034l-.151.62c-.002.016-.012.023-.029.02a10.761 10.761 0 0 1-2.675-1.081c-.017-.01-.02-.021-.012-.034l.317-.555c.01-.014.022-.017.037-.009Z"/></g></g></svg>