<svg xmlns="http://www.w3.org/2000/svg" width="41" height="12"><defs><linearGradient id="a" x1="100%" x2="2.053%" y1="54.328%" y2="45.85%"><stop offset="0%" stop-color="#6C6CFF"/><stop offset="100%" stop-color="#3E3EFF"/></linearGradient></defs><g fill="none" fill-rule="evenodd"><path fill="url(#a)" d="M38.942 0c1.02 0 1.846.827 1.846 1.846v8.308c0 1.02-.827 1.846-1.846 1.846H3.634l-.025-.001L0 12c.22-.224.44-.475.66-.753.33-.417 1.123-1.858 1.127-2.243V1.846C1.788.826 2.615 0 3.635 0h35.308Z"/><g fill="#FFF" fill-rule="nonzero"><path d="M7.4 3.094v1.865c0 .934-.167 1.819-.504 2.656a6.322 6.322 0 0 1-1.531 2.236c-.098.1-.19.095-.282-.008l-.23-.272c-.092-.1-.086-.199.015-.298a5.571 5.571 0 0 0 1.34-1.96 6.316 6.316 0 0 0 .431-2.356V3.094c0-.14.069-.21.205-.21h.35c.138 0 .205.071.205.21H7.4Zm5.06-.385v.358c0 .135-.07.201-.205.201H5.097c-.138 0-.204-.066-.204-.2v-.36c0-.134.069-.2.204-.2h7.156c.138 0 .204.066.204.2h.003Zm-.754 2.828v3.957c0 .27-.128.402-.385.402H10.14c-.138 0-.205-.07-.205-.209v-.333c0-.141.07-.21.205-.21h.822V5.887H7.247c-.138 0-.205-.066-.205-.2v-.351c0-.129.069-.193.205-.193h4.074c.257 0 .385.13.385.394ZM14.086 4.95v1.024c0 .993-.103 1.92-.308 2.785-.022.128-.093.178-.214.15l-.3-.08c-.12-.022-.166-.1-.138-.228.195-.81.292-1.686.292-2.625V4.953c0-.116.06-.177.18-.177h.3c.126 0 .188.058.188.177V4.95Zm2.055-1.357v.35c0 .135-.065.202-.197.202h-2.5c-.138 0-.205-.067-.205-.201v-.35c0-.13.07-.193.205-.193h2.5c.132 0 .197.064.197.192Zm-.857-1.278V9.79c0 .14-.063.209-.189.209h-.334c-.132 0-.197-.07-.197-.21V2.316c0-.135.065-.201.197-.201h.334c.126 0 .189.066.189.2ZM16.14 5.8v.342c0 .135-.065.2-.197.2h-.796c-.138 0-.205-.065-.205-.2V5.8c0-.135.07-.2.205-.2h.796c.132 0 .197.065.197.2Zm.709-3.458h3.561c.258 0 .385.13.385.394V9.44c0 .256-.127.385-.385.385H16.85c-.258 0-.385-.129-.385-.385V2.736c0-.264.127-.394.385-.394Zm3.227.744h-2.885v5.988h2.885V3.086Zm-.393 1.672V5.1c0 .134-.069.2-.205.2h-1.685c-.138 0-.205-.066-.205-.2v-.342c0-.141.07-.21.205-.21h1.685c.138 0 .205.071.205.21Zm0 2.117v.342c0 .141-.069.21-.205.21h-1.685c-.138 0-.205-.07-.205-.21v-.342c0-.134.07-.2.205-.2h1.685c.138 0 .205.066.205.2ZM29.27 2.7v.324c0 .128-.062.192-.188.192h-7.259c-.125 0-.188-.064-.188-.192V2.7c0-.128.063-.192.188-.192h7.26c.125 0 .188.064.188.192Zm-.042 1.55v.875c0 .14-.065.209-.196.209h-.359c-.132 0-.196-.07-.196-.21v-.586h-6.044v.587c0 .14-.065.209-.196.209h-.359c-.132 0-.196-.07-.196-.21V4.25c0-.257.123-.385.368-.385h6.814c.245 0 .368.128.368.385h-.004Zm-6.677 3.467h5.812c.251 0 .377.128.377.385v1.392c0 .257-.126.386-.377.386h-5.812c-.252 0-.377-.129-.377-.386V8.102c0-.257.125-.385.377-.385Zm.591-2.6h4.613c.252 0 .377.126.377.376v1.322c0 .251-.125.377-.377.377h-4.613c-.239 0-.358-.126-.358-.377V5.493c0-.25.12-.377.358-.377Zm4.828 3.256h-5.024v.85h5.024v-.85Zm-.591-2.6h-3.852v.763h3.852v-.763ZM24.366 2.22v1.208c0 .14-.069.209-.205.209h-.358c-.138 0-.205-.07-.205-.21V2.22c0-.145.069-.22.205-.22h.358c.138 0 .205.073.205.22Zm2.944 0v1.208c0 .14-.071.209-.215.209h-.342c-.142 0-.215-.07-.215-.21V2.22c0-.145.07-.22.215-.22h.342c.142 0 .215.073.215.22ZM31.248 8.794l-.857.928c-.091.1-.182.102-.273.009l-.231-.228c-.098-.087-.104-.178-.017-.272l.847-.945c.091-.099.187-.101.282-.008l.23.228c.098.093.104.19.017.288h.002Zm.205-3.67v2.932c0 .357.085.634.257.831.17.2.411.299.72.299h5.17c.125 0 .188.066.188.2v.334c0 .129-.063.193-.189.193h-5.17c-.32 0-.61-.083-.873-.245A1.703 1.703 0 0 1 30.94 9a2.004 2.004 0 0 1-.223-.94V5.466h-.642c-.126 0-.188-.066-.188-.2v-.334c0-.129.062-.193.188-.193h.993c.257 0 .385.129.385.386Zm-.12-2.679v1.279c0 .14-.065.21-.196.21h-.335c-.137 0-.204-.071-.204-.21V2.445c0-.14.069-.209.204-.209h.335c.131 0 .196.07.196.21Zm6.274 2.286v.323c0 .129-.062.193-.188.193h-4.931c-.126 0-.188-.064-.188-.193v-.323c0-.129.062-.193.188-.193h4.931c.126 0 .188.064.188.193Zm-4.34-2.18v.334h3.905c.126 0 .188.064.188.192v.324c0 .128-.062.192-.188.192h-4.255c-.245 0-.368-.128-.368-.385v-.657c0-.135.065-.2.196-.2h.335c.125 0 .188.065.188.2Zm-.248 3.38h3.877c.258 0 .385.128.385.385v1.76c0 .262-.127.393-.385.393H33.02c-.258 0-.385-.13-.385-.394V6.316c0-.257.127-.385.385-.385Zm3.527.708H33.37v1.113h3.175V6.639ZM35.338 2.35v2.33c0 .14-.064.208-.196.208h-.334c-.132 0-.197-.07-.197-.209V2.35c0-.128.065-.193.197-.193h.334c.132 0 .196.065.196.193Z"/></g></g></svg>