<?xml version="1.0" encoding="UTF-8"?>
<svg width="1022px" height="62px" viewBox="0 0 1022 62" version="1.1" xmlns="http://www.w3.org/2000/svg" xmlns:xlink="http://www.w3.org/1999/xlink">
    <title>编组 20</title>
    <defs>
        <linearGradient x1="88.2294408%" y1="50.1520488%" x2="-6.86950496e-14%" y2="49.6875849%" id="linearGradient-1">
            <stop stop-color="#2D60FF" offset="0%"></stop>
            <stop stop-color="#20DACB" offset="66.9722658%"></stop>
            <stop stop-color="#AAFC89" offset="100%"></stop>
        </linearGradient>
        <linearGradient x1="102.818688%" y1="50.1784753%" x2="-1.16358218%" y2="49.8215247%" id="linearGradient-2">
            <stop stop-color="#6DEDA5" offset="0%"></stop>
            <stop stop-color="#FFFFFF" stop-opacity="0" offset="15.9657363%"></stop>
            <stop stop-color="#FFFFFF" stop-opacity="0" offset="75.8957863%"></stop>
            <stop stop-color="#55AEFF" offset="99.9672203%"></stop>
        </linearGradient>
    </defs>
    <g id="页面-" stroke="none" stroke-width="1" fill="none" fill-rule="evenodd">
        <g id="编组-20" transform="translate(0.5, 0.5)" fill-rule="nonzero">
            <path d="M990.5,0.5 C1007.06854,0.5 1020.5,13.9314575 1020.5,30.5 C1020.5,47.0685425 1007.06854,60.5 990.5,60.5 L30.5,60.5 C13.9314575,60.5 0.5,47.0685425 0.5,30.5 C0.5,13.9314575 13.9314575,0.5 30.5,0.5 L990.5,0.5 Z M990.5,1.5 L30.5,1.5 C14.4837423,1.5 1.5,14.4837423 1.5,30.5 C1.5,46.5162577 14.4837423,59.5 30.5,59.5 L990.5,59.5 C1006.51626,59.5 1019.5,46.5162577 1019.5,30.5 C1019.5,14.4837423 1006.51626,1.5 990.5,1.5 Z" id="Rectangle-2备份-2" fill-opacity="0.25" fill="url(#linearGradient-1)"></path>
            <path d="M990.5,0 C1007.34468,0 1021,13.6553151 1021,30.5 C1021,47.3446849 1007.34468,61 990.5,61 L30.5,61 C13.6553151,61 0,47.3446849 0,30.5 C0,13.6553151 13.6553151,0 30.5,0 L990.5,0 Z M990.5,1 L30.5,1 C14.2075999,1 1,14.2075999 1,30.5 C1,46.7924001 14.2075999,60 30.5,60 L990.5,60 C1006.7924,60 1020,46.7924001 1020,30.5 C1020,14.2075999 1006.7924,1 990.5,1 Z" id="Rectangle-2备份-3" fill="url(#linearGradient-2)" transform="translate(510.5, 30.5) scale(-1, 1) translate(-510.5, -30.5)"></path>
        </g>
    </g>
</svg>