<?xml version="1.0" encoding="UTF-8"?>
<svg width="84px" height="84px" viewBox="0 0 84 84" version="1.1" xmlns="http://www.w3.org/2000/svg" xmlns:xlink="http://www.w3.org/1999/xlink">
    <title>首屏/金刚入口/3d库选中备份</title>
    <defs>
        <rect id="path-1" x="0" y="0" width="84" height="84" rx="20.0834573"></rect>
        <radialGradient cx="40.9328645%" cy="45.0316147%" fx="40.9328645%" fy="45.0316147%" r="44.7409165%" gradientTransform="translate(0.4093, 0.4503), scale(0.9208, 1), rotate(145.9856), scale(1, 0.665), translate(-0.4093, -0.4503)" id="radialGradient-3">
            <stop stop-color="#0057FF" offset="0%"></stop>
            <stop stop-color="#143A74" stop-opacity="0" offset="100%"></stop>
        </radialGradient>
        <filter x="-6.1%" y="-6.6%" width="112.2%" height="113.3%" filterUnits="objectBoundingBox" id="filter-4">
            <feGaussianBlur stdDeviation="3.01251859" in="SourceGraphic"></feGaussianBlur>
        </filter>
        <linearGradient x1="73.3076904%" y1="20.6792728%" x2="5.01389925%" y2="69.6817749%" id="linearGradient-5">
            <stop stop-color="#0060FF" offset="0%"></stop>
            <stop stop-color="#143A74" stop-opacity="0" offset="100%"></stop>
        </linearGradient>
        <filter x="-14.3%" y="-14.4%" width="128.5%" height="128.8%" filterUnits="objectBoundingBox" id="filter-6">
            <feGaussianBlur stdDeviation="3.01251859" in="SourceGraphic"></feGaussianBlur>
        </filter>
        <radialGradient cx="38.0826783%" cy="45.8755026%" fx="38.0826783%" fy="45.8755026%" r="66.1145993%" gradientTransform="translate(0.3808, 0.4588), scale(0.9894, 1), rotate(134.5319), scale(1, 0.673), translate(-0.3808, -0.4588)" id="radialGradient-7">
            <stop stop-color="#92FF63" offset="0%"></stop>
            <stop stop-color="#5A7C76" stop-opacity="0" offset="100%"></stop>
        </radialGradient>
        <filter x="-14.3%" y="-14.4%" width="128.5%" height="128.8%" filterUnits="objectBoundingBox" id="filter-8">
            <feGaussianBlur stdDeviation="3.01251859" in="SourceGraphic"></feGaussianBlur>
        </filter>
        <linearGradient x1="86.5799505%" y1="10.4418959%" x2="17.9876021%" y2="84.0662288%" id="linearGradient-9">
            <stop stop-color="#3364FF" stop-opacity="0.714515953" offset="0.00819493007%"></stop>
            <stop stop-color="#20DACB" offset="66.9722658%"></stop>
            <stop stop-color="#B9FF7A" stop-opacity="0.762811407" offset="100%"></stop>
        </linearGradient>
    </defs>
    <g id="首屏/金刚入口/3d库选中备份" stroke="none" stroke-width="1" fill="none" fill-rule="evenodd">
        <g id="编组">
            <mask id="mask-2" fill="white">
                <use xlink:href="#path-1"></use>
            </mask>
            <ellipse id="椭圆形" fill="url(#radialGradient-3)" filter="url(#filter-4)" mask="url(#mask-2)" cx="93.0180016" cy="16.1904762" rx="73.8521212" ry="68"></ellipse>
            <ellipse id="椭圆形" fill="url(#linearGradient-5)" opacity="0.32296317" filter="url(#filter-6)" mask="url(#mask-2)" cx="54.7744662" cy="20.2380952" rx="31.7045455" ry="31.3690476"></ellipse>
            <ellipse id="椭圆形备份" fill="url(#radialGradient-7)" opacity="0.694428943" filter="url(#filter-8)" mask="url(#mask-2)" cx="31.7744662" cy="56.2380952" rx="31.7045455" ry="31.3690476"></ellipse>
        </g>
        <path d="M63.9165427,0 C75.0083299,0 84,8.99167009 84,20.0834573 L84,63.9165427 C84,75.0083299 75.0083299,84 63.9165427,84 L20.0834573,84 C8.99167009,84 0,75.0083299 0,63.9165427 L0,20.0834573 C0,8.99167009 8.99167009,0 20.0834573,0 L63.9165427,0 Z M63.9165427,2.00834573 L20.0834573,2.00834573 C10.1008488,2.00834573 2.00834573,10.1008488 2.00834573,20.0834573 L2.00834573,63.9165427 C2.00834573,73.8991512 10.1008488,81.9916543 20.0834573,81.9916543 L63.9165427,81.9916543 C73.8991512,81.9916543 81.9916543,73.8991512 81.9916543,63.9165427 L81.9916543,20.0834573 C81.9916543,10.1008488 73.8991512,2.00834573 63.9165427,2.00834573 Z" id="矩形" fill="url(#linearGradient-9)" fill-rule="nonzero"></path>
    </g>
</svg>