<?xml version="1.0" standalone="no"?><!DOCTYPE svg PUBLIC "-//W3C//DTD SVG 1.1//EN" "http://www.w3.org/Graphics/SVG/1.1/DTD/svg11.dtd"><svg class="icon" width="200px" height="200.00px" viewBox="0 0 1024 1024" version="1.1" xmlns="http://www.w3.org/2000/svg"><path d="M186.056444 231.162808l-12.102591-43.044123C381.901492 126.920676 589.734956 65.688413 797.465663 4.410481c39.653113-11.64589 59.485379-0.228351 59.485378 34.252617 0 17.891284-8.563154 28.966297-25.689463 33.225039l-645.205134 159.274671zM576.992983 331.865502l-114.746268 58.914502-42.35907 25.232761-26.146165-42.35907c1.027579-0.570877 72.501373-38.362931 39.961387-38.020405 14.956976-4.795366 30.028128-3.425262 43.500824-11.531714 163.647588-98.567615 327.22667-197.363581 490.72583-296.399315 12.707721-7.684004 24.661884-6.622173 35.851073 3.196911 38.248756 33.339214 2.740209 58.914502-27.630445 75.241582a11692.028149 11692.028149 0 0 0-399.157166 225.724748z" fill="#FFC133" /><path d="M173.953853 188.118685l12.102591 43.044123c-33.567565 51.538771-72.649801 60.250354-117.258126 26.146164-17.891284-13.701047-19.980693-29.457251-6.279647-47.268612 29.000549-37.518033 66.141804-44.825258 111.435182-21.921675z" fill="#F4893B" /><path d="M433.702867 335.63329c32.539986-0.342526-38.933808 37.449528-39.961387 38.020405-34.480968-7.307225-63.972472 1.255929-88.485928 25.689463h-251.18586l-31.284057-5.366243c-4.155984-0.730723-7.535576-2.454771-9.362382-4.795366-14.466022-18.873192-12.753391-35.462876 5.137893-49.780471 2.797297-2.215003 6.428075-3.425262 10.275785-3.425262l404.865936-0.342526zM576.992983 331.865502c137.158897 4.795366 272.570911 6.245394 406.236041 4.338665 55.260889-0.913403 45.441806 70.217865-12.90182 60.284607l-501.001615 2.397683a6.108383 6.108383 0 0 1-5.708769-3.996139l-1.370105-4.110314 114.746268-58.914502z" fill="#664125" /><path d="M393.74148 373.653695l26.146165 42.35907c-33.45339 91.91119-168.637052 75.584109-114.632093-16.669607 24.513456-24.433534 54.00496-32.996688 88.485928-25.689463z" fill="#F4893B" /><path d="M462.246715 390.780004l1.370105 4.110314c0.913403 2.409101 3.174076 3.996139 5.708769 3.996139l501.001615-2.397683-3.311086 105.155535c-40.189738-8.974186-79.694423-5.857198-118.514056 9.362382-4.190237-7.078874-11.223441-9.704908-21.122447-7.878102-2.705957 0.468119-4.818201 3.391009-5.137893 7.078874l-2.740209 34.252617-1.48428-38.933808c-0.13701-3.196911-2.865802-5.822945-6.393822-6.165471a440.043374 440.043374 0 0 0-127.305561 6.393822c-10.960838-5.252068-20.859844-4.45284-29.685602 2.397683a361.536375 361.536375 0 0 0-129.474893-9.248207c-1.609873 0.114175-2.888637 1.187424-2.96856 2.511859v2.626034l-22.835078 0.913403a442.806419 442.806419 0 0 0-134.156084-2.854385c-7.992277-7.147379-16.555432-8.106453-25.689463-2.854385l-139.864854 2.854385c-11.497462-1.141754-20.55157 1.107501-27.173743 6.736348-39.276334-16.589684-78.095967-16.441256-116.458899 0.456702l-1.940982-109.950902h251.18586c-54.00496 92.253716 81.178703 108.580797 114.632093 16.669607l42.35907-25.232761z" fill="#91613F" /><path d="M365.197633 502.10101c8.0722 116.767172 9.168284 233.64852 3.311086 350.632626-8.0722 7.078874-17.206231 7.272972-27.402094 0.570877-10.275785-118.662484-10.81241-236.685585-1.598455-354.057888 9.134031-5.252068 17.697186-4.292995 25.689463 2.854385z" fill="#1D4D59" /><path d="M172.469573 508.837358c-6.393822 115.853769-6.051296 230.485862 1.027578 343.896278-43.957526 14.157748-78.78102-0.685052-116.116372 8.563154a4758.031065 4758.031065 0 0 1-1.370105-352.00273c38.362931-16.897958 77.182564-17.046386 116.458899-0.456702zM339.50817 499.246625c-9.213954 117.372302-8.67733 235.395403 1.598455 354.057888-45.590234 8.380474-92.516319 8.494649-140.778257 0.342526 9.590733-118.125859 9.362382-235.315481-0.685052-351.546029l139.864854-2.854385zM499.353717 504.955395c-11.04076 111.743455-11.303364 225.610572-0.799228 341.61277-42.929947 16.74953-86.282343 18.804687-130.04577 6.165471a2944.606167 2944.606167 0 0 0-3.311086-350.632626c44.985104-5.857198 89.707605-4.909542 134.156084 2.854385zM654.632248 508.152306a2008.995926 2008.995926 0 0 0 2.74021 345.152207c-27.516269 4.45284-130.616647 20.894097-129.018192-17.697186 5.857198-110.750129 3.802041-221.271908-6.165471-331.565335v-2.626034c0.079923-1.324435 1.358687-2.397683 2.96856-2.511859 43.84335-4.715444 87.001648-1.632708 129.474893 9.248207zM819.501513 544.46008c-7.843849 102.072799-6.58792 205.024749 3.767788 308.844433-46.206781 9.442305-92.79034 8.837175-139.750679-1.826807 8.369056-115.317145 8.643077-230.554367 0.799228-345.723083a440.043374 440.043374 0 0 1 127.305561-6.393822c3.52802 0.342526 6.256811 2.96856 6.393822 6.165471l1.48428 38.933808zM967.016118 501.644309c5.331991 118.970757 5.331991 237.907262 0 356.798096-39.356257 3.356756-78.666844 1.141754-117.943179-6.622172 8.597407-113.490339 8.414726-227.094853-0.570877-340.813542 38.819633-15.21958 78.324318-18.336568 118.514056-9.362382z" fill="#FFC133" /><path d="M199.643316 502.10101c10.047434 116.230548 10.275785 233.420169 0.685052 351.546029-7.387148 7.307225-16.327081 7.010369-26.831217-0.913403-7.078874-113.410416-7.4214-228.042508-1.027578-343.896278 6.622173-5.628847 15.676281-7.878102 27.173743-6.736348zM522.188795 504.041992c9.967512 110.293428 12.022669 220.815206 6.165471 331.565335-4.258742 26.191835-14.192001 29.845447-29.799777 10.960838-10.504136-116.002197-10.241533-229.869315 0.799228-341.61277l22.835078-0.913403zM684.31785 505.754623c7.843849 115.168717 7.569828 230.405939-0.799228 345.723083-7.843849 8.90568-16.555432 9.522228-26.146164 1.826807-10.81241-114.175391-11.725813-229.218515-2.74021-345.152207 8.825758-6.850523 18.724764-7.649751 29.685602-2.397683zM848.502062 511.006691c8.985603 113.718689 9.168284 227.323203 0.570877 340.813542-6.313899 7.843849-14.922724 8.334804-25.803638 1.48428a1753.562741 1753.562741 0 0 1-3.767788-308.844433l2.740209-34.252617c0.319691-3.687865 2.431936-6.610755 5.137893-7.078874 9.899006-1.826806 16.93221 0.799228 21.122447 7.878102z" fill="#1D4D59" /><path d="M528.354266 835.607327c-1.598455 38.591282 101.501923 22.150026 129.018192 17.697186 9.590733 7.695421 18.302315 7.078874 26.146164-1.826807 46.960338 10.663982 93.543898 11.269111 139.750679 1.826807 10.880915 6.850523 19.489739 6.359569 25.803638-1.48428 39.276334 7.763927 78.586922 9.978929 117.943179 6.622172l0.456702 102.30115H56.924077a334.990597 334.990597 0 0 1 0.456702-99.446765c37.335353-9.248207 72.158847 5.594594 116.116372-8.563154 10.504136 7.923772 19.444069 8.220628 26.831217 0.913403 48.261938 8.152123 95.188023 8.037948 140.778257-0.342526 10.195862 6.702095 19.329894 6.507997 27.402094-0.570877 43.763427 12.639216 87.115823 10.584059 130.04577-6.165471 15.607776 18.88461 25.541035 15.230997 29.799777-10.960838z" fill="#91613F" /><path d="M56.924077 960.743555h910.548743c33.259291-4.338665 50.579698 8.951351 51.949802 39.847212 0.60513 15.527853-6.850523 23.29178-22.378376 23.29178-318.400913 0.079923-637.132934 0.114175-956.218899 0.114175-57.087695 0-46.126858-72.387198 16.09873-63.253167z" fill="#664125" /></svg>