<?xml version="1.0" standalone="no"?><!DOCTYPE svg PUBLIC "-//W3C//DTD SVG 1.1//EN" "http://www.w3.org/Graphics/SVG/1.1/DTD/svg11.dtd"><svg class="icon" width="200px" height="200.00px" viewBox="0 0 1024 1024" version="1.1" xmlns="http://www.w3.org/2000/svg"><path d="M964.630509 51.88974c-121.616577 4.169711-243.233155 3.822235-364.849733-1.042428-2.640817-0.13899-4.887828 0.891855-5.559615 2.548157a7.876121 7.876121 0 0 0-0.694951 3.822235l-30.462057-10.540103a13.065095 13.065095 0 0 1-7.644471-7.528646c-5.791266-13.748465-3.208361-25.21517 7.760296-34.400117 2.687147-2.247011 6.381975-3.474759 10.424278-3.47476L962.545653 0a23.999005 23.999005 0 0 1 18.995351 9.266025c15.902815 19.921954 10.273705 34.133719-16.910495 42.623715z" fill="#F4893B" /><path d="M964.630509 51.88974c-45.171872 21.925732-77.174405 56.522752-96.019184 103.779479-17.837098 24.091665-27.184201 51.11371-28.029725 81.077719a1458.101686 1458.101686 0 0 0-6.717868 269.988802c0.312728 3.70641-0.347476 3.822235-1.969031 0.347476-28.342454-63.24062-67.792555-118.141818-118.373468-164.703594a13.261998 13.261998 0 0 1-4.285537-9.729326c0.115825-102.389576-33.35769-209.875465-115.709486-275.432592a7.876121 7.876121 0 0 1 0.694951-3.822235c0.671787-1.656302 2.918798-2.687147 5.559615-2.548157 121.616577 4.864663 243.233155 5.212139 364.849733 1.042428z" fill="#FFC133" /><path d="M868.611325 155.669219l-28.029725 81.077719c0.845525-29.964008 10.192627-56.986053 28.029725-81.077719z" fill="#F8DF9D" /><path d="M307.321864 706.302752l-3.358934 14.014863c-4.633012 15.983893-3.162031 32.431087 4.401362 49.341583-171.653112-27.450599-154.510966-261.301904 23.744189-266.282392 74.35985-2.084856 179.992535-2.895633 316.898053-2.432332 49.920709 0.115825 94.62928-0.463301 133.894061 29.88293 43.318667 33.438768 60.773541 81.228291 52.353041 143.391737-54.785373 404.69364-623.140178 440.483661-710.124988 40.191383-55.480324-255.394813 166.904274-481.601647 425.310546-427.974528 131.114253 27.184201 221.956045 109.918221 272.536958 248.213644 0.77603 2.165933 1.00768 4.053886 0.694952 5.67544a10.609599 10.609599 0 0 1-1.042427 3.127283 1.853205 1.853205 0 0 1-1.772128 0.880273 2.93038 2.93038 0 0 1-2.050108-1.111923c-20.535828-26.489249-47.106154-44.245269-79.687814-53.279644-3.741158-1.042428-6.949519-3.301021-9.034375-6.370392-99.262292-144.549989-280.992207-189.49021-425.310545-88.143062-93.239376 65.557127-142.580959 184.162246-121.153276 297.439401 42.507889 224.469454 310.759312 314.349897 481.254171 172.69554 56.60383-47.025077 91.652569-112.037824 105.169383-195.049825 10.540103-64.167223-17.026321-102.852877-81.77267-103.432004a30729.1502 30729.1502 0 0 0-292.111437-0.926602c-35.442545 0.115825-77.602959-10.424278-112.118902 14.709814-52.12139 37.874877-37.643226 104.706082 23.280888 125.438813z" fill="#FFC133" /><path d="M422.452224 483.570677a12.914522 12.914522 0 0 1-8.802724-14.362338c4.945741-32.975466-1.540477-62.429843-19.458652-88.374713-2.084856-2.988293-2.119603-6.810528-0.115826-9.497676 34.284292-44.70857 73.664898 126.944542 28.377202 112.234727zM517.42898 482.875725a8.976462 8.976462 0 0 1-6.949519-7.528645c-1.73738-13.319911 2.316506-137.021344 45.519348-103.663654 2.548157 1.957448 3.011458 5.72177 1.042427 8.571073-17.373797 25.400491-24.404393 53.163818-21.080206 83.278399 1.73738 15.868068-1.158253 23.165062-18.53205 19.342827z" fill="#030D0A" fill-opacity=".984" /><path d="M341.02703 402.377134c18.53205 20.234682 25.284666 44.511667 20.269429 72.854121-0.648622 4.019138-2.802973 7.32016-5.791265 8.918549-5.096314 2.629235-9.879899 2.316506-14.362339-0.926603-2.548157-1.748962-4.181294-5.385877-4.401362-9.729326a139.511588 139.511588 0 0 0-15.752242-57.796831c-1.887953-3.70641-2.142768-7.644471-0.694952-10.540103 2.467079-4.71409 6.138742-7.215917 11.003404-7.528645 3.208361-0.220068 6.822111 1.552059 9.729327 4.748838z" fill="#143D3E" /><path d="M609.394277 486.350485l-14.246513-3.358934c-3.231526-0.741282-5.663858-3.822235-6.022916-7.644471-2.629235-28.110803 4.551935-52.966915 21.543508-74.591501 2.374419-3.011458 6.034499-4.378197 9.266025-3.474759 20.385255 5.44379-6.602043 58.955084-3.011458 82.004321a6.335645 6.335645 0 0 1-1.911118 5.58278 6.069246 6.069246 0 0 1-5.617528 1.482564zM391.17939 712.788969c1.158253 14.04961-3.243109 27.948648-13.204086 41.697113-1.320409 1.899535-4.80675 3.66008-9.38185 4.748838l-35.790022 8.686898c-4.308702 1.077175-8.130937 0.810777-10.076802-0.694952-15.671165-11.350881-21.925732-26.987298-18.7637-46.909251l3.358934-14.014863a67.225011 67.225011 0 0 0 25.597394-18.995351c2.235429-2.69873 3.474759-6.347227 3.474759-10.308453l0.231651-83.625875c0-4.077051 1.714215-7.621306 4.517187-9.266025 5.177391-3.162031 10.574851-3.046206 16.215544 0.347476 2.826138 1.656302 4.227624 5.327964 3.474759 9.1502-9.115452 47.638951 1.00768 87.367033 30.346232 119.184245z" fill="#030D0A" fill-opacity=".984" /><path d="M415.90495 581.725794m7.876013 0.041239l9.265898 0.048516q7.876013 0.041239 7.834774 7.917253l-0.490017 93.585569q-0.041239 7.876013-7.917253 7.834774l-9.265898-0.048517q-7.876013-0.041239-7.834774-7.917252l0.490018-93.585569q0.041239-7.876013 7.917252-7.834774Z" fill="#030D0A" fill-opacity=".984" /><path d="M510.230049 581.42051m11.466688 0.020013l3.011454 0.005256q11.466688 0.020013 11.446675 11.486702l-0.156062 89.417004q-0.020013 11.466688-11.486702 11.446676l-3.011453-0.005256q-11.466688-0.020013-11.446675-11.486702l0.156062-89.417004q0.020013-11.466688 11.486701-11.446676Z" fill="#051E21" fill-opacity=".996" /><path d="M620.050206 690.897985a52.688934 52.688934 0 0 0-31.851961-2.895632l0.231651-97.640738a8.4205 8.4205 0 0 1 5.44379-7.876121c35.210895-12.393308 23.512538 87.679761 26.17652 108.412491z" fill="#1D4D59" /><path d="M709.351521 691.013811a7.32016 7.32016 0 0 1-4.864663-6.717868l0.810778-95.787533a4.864663 4.864663 0 0 1 6.022916-4.748838c25.249918 5.409042 39.99448 21.27711 44.245269 47.604203 4.401362 27.485347 3.671662 44.789648-2.200681 51.88974-10.273705 12.590211-24.93719 15.173116-44.013619 7.760296z" fill="#FFC133" /><path d="M620.050206 690.897985l31.851961 18.3004c4.48244 22.319538 1.586807 43.237589-8.686899 62.777319-50.731487 25.249918-8.571073 74.823151-32.431087 93.934328-5.246887 4.250789-11.200308 4.019138-17.837098-0.694952-2.74506-1.887953-4.053886-5.559615-3.358934-9.38185 6.103994-34.203215-2.165933-62.626746-24.786617-85.24743-12.196405-18.914273-14.04961-39.380606-5.559615-61.387415l28.956328-21.196032c11.11923-2.316506 21.740411-1.355156 31.851961 2.895632zM519.166359 708.735084c10.655929 21.080207 10.3432 41.349636-0.926602 60.808288-29.500707 24.93719-58.294879 23.825267-86.405683-3.358934-7.41282-17.142146-7.563393-34.36537-0.463301-51.658089 26.871472-32.743816 56.140529-34.666516 87.795586-5.791265z" fill="#357DA2" /><path d="M431.370773 714.526349c-7.100092 17.292719-6.949519 34.515943 0.463301 51.658089a79.143436 79.143436 0 0 1-40.538859 5.791266c12.196405-19.145924 14.130688-39.114208 5.791266-59.881686 11.582531-2.93038 23.014489-2.119603 34.284292 2.432331z" fill="#FEC129" /><path d="M519.166359 708.735084l40.075558 0.463301c-8.489995 22.006809-6.63679 42.473142 5.559615 61.387415-17.918176 5.559615-33.438768 5.212139-46.561775-1.042428 11.269803-19.458652 11.582531-39.728082 0.926602-60.808288zM651.902167 709.198385l83.162574 0.347476a6.833693 6.833693 0 0 1 6.602042 6.022916c2.860885 24.172743-5.293217 43.052268-24.43914 56.638577a17.107399 17.107399 0 0 1-10.655929 3.011459l-63.356446-3.243109c10.273705-19.53973 13.169338-40.457781 8.686899-62.777319z" fill="#FFC133" /><path d="M391.17939 712.788969l5.907091-0.694951c8.339422 20.767478 6.40514 40.735762-5.791266 59.881686a60.669298 60.669298 0 0 0-22.006809 13.899037c-2.513409 2.524992-3.938061 6.196654-3.938061 10.192628 0.347476 21.427683 6.486217 86.289857-23.744189 69.031886-2.918798-1.679467-4.447692-5.235304-3.822235-8.918549 6.486217-36.751371-3.324186-65.591874-29.419629-86.521508-7.563393-16.910496-9.034374-33.35769-4.401362-49.341583-3.162031 19.921954 3.092536 35.558371 18.7637 46.909251 1.945865 1.505729 5.768101 1.772127 10.076802 0.694952l35.790022-8.686898c4.5751-1.088758 8.061442-2.849303 9.38185-4.748838 9.960977-13.748465 14.362339-27.647502 13.204086-41.697113z" fill="#265360" /><path d="M510.271554 787.795903m12.972356 0.045282l1.621545 0.00566q12.972356 0.045282 12.927074 13.017638l-0.188407 53.974267q-0.045282 12.972356-13.017638 12.927073l-1.621545-0.00566q-12.972356-0.045282-12.927073-13.017638l0.188406-53.974266q0.045282-12.972356 13.017638-12.927074Z" fill="#265360" /><path d="M414.228627 789.465326m12.740784 0l3.474759 0q12.740784 0 12.740785 12.740784l0 52.816342q0 12.740784-12.740785 12.740785l-3.474759 0q-12.740784 0-12.740784-12.740785l0-52.816342q0-12.740784 12.740784-12.740784Z" fill="#265360" /><path d="M99.299604 934.594442l2.432331 60.344987c-6.567295 24.091665-22.122635 33.207117-46.6776 27.334774a11.420376 11.420376 0 0 1-7.876122-6.717868c-11.200308-26.558744-15.439514-54.437897-12.740784-83.625875 0.382224-3.856983 1.87637-7.482315 4.285537-10.424279 25.632142-30.890611 45.832076-26.523996 60.576638 13.088261z" fill="#F4893B" /><path d="M101.731935 994.939429l-2.432331-60.344987c46.677601-4.285537 123.353957-13.319911 164.587768 12.277483a610.329899 610.329899 0 0 0 84.089176 43.550317c3.625332 1.621554 3.509507 2.93038-0.347476 3.938061-30.462057 8.223597-62.661494 0.463301-88.490538 1.96903a1139.234603 1139.234603 0 0 1-157.406599-1.389904z" fill="#FFC133" /></svg>