<?xml version="1.0" standalone="no"?><!DOCTYPE svg PUBLIC "-//W3C//DTD SVG 1.1//EN" "http://www.w3.org/Graphics/SVG/1.1/DTD/svg11.dtd"><svg class="icon" width="200px" height="176.40px" viewBox="0 0 1161 1024" version="1.1" xmlns="http://www.w3.org/2000/svg"><path d="M162.842479 19.133293l-85.192035-9.014358c29.798168-13.369182 58.187048-10.37286 85.192035 9.014358z" fill="#F8DF9D" /><path d="M261.238644 47.699921l-29.07448-9.014358a70.36278 70.36278 0 0 1 10.283986-31.994624c2.158367-3.529566 5.713326-5.865681 9.649172-6.348139 34.53388-4.316735 11.426651 33.391215 9.141322 47.357121z" fill="#265360" /><path d="M77.650444 10.118935l85.192035 9.014358 69.321685 19.55227 29.07448 9.014358c18.536568 12.061465 113.250812 55.736666 122.392132 86.588626a6.030733 6.030733 0 0 1-0.685599 4.786497 6.284658 6.284658 0 0 1-4.012024 2.83127c-26.154335 5.586363-51.635768 3.808884-76.431602-5.332437a175.500669 175.500669 0 0 0-78.843894-18.536568l-10.030061-6.855991c-11.172726-4.697623-164.289855-72.368792-135.977152-101.062383z" fill="#FFC133" /><path d="M953.693718 83.122541l-25.392558 9.522209a60.789785 60.789785 0 0 1-6.982954-34.152991 8.252582 8.252582 0 0 1 6.982954-7.490805c18.625442-2.374204 27.081164 8.341456 25.392558 32.121587z" fill="#1D4D59" /><path d="M984.418714 146.603937c-11.007674-1.104576-20.529884 2.069494-28.566628 9.52221l-117.186658 23.107228a14.791165 14.791165 0 0 1-11.80754-2.793181c-25.773447-20.187084 87.604327-75.796788 101.443272-83.795444l25.392558-9.522209 126.835831-26.154336a8.379544 8.379544 0 0 1 9.395247 4.697624c13.585019 29.836256-83.922406 72.622718-105.506082 84.938108z" fill="#FFC133" /><path d="M213.627596 111.181318l10.030061 6.855991 2.666218 12.188428-31.613735 71.099164c-1.460072 3.326425-4.659535 6.157695-8.887396 7.871694l-34.533879 14.600721c-13.293004 5.586363-19.933159 15.781475-19.933159 30.598033l-0.126963 511.279169c0 10.71566 3.935847 21.063127 11.045763 29.074479 2.793181 3.047107 120.868579 116.678807 62.084806 108.299263a17.089192 17.089192 0 0 1-10.537912-5.967251l-52.054745-59.799476c-6.944865-7.871693-10.410949-6.640154-10.410949 3.681921l-0.253926 95.476021c0 4.316735-1.701301 8.125619-4.57066 10.283986-40.882019 30.344108-26.154335-93.698541-25.392559-104.236453 0.761777-9.306373-2.196456-10.537912-8.887395-3.681921l-61.576955 62.084806a10.410949 10.410949 0 0 1-10.9188 2.412293c-14.562632-5.421311-15.400587-15.235535-2.539256-29.455368 39.523518-43.586327 65.55089-72.914732 78.082118-87.985216a17.26694 17.26694 0 0 0 3.935846-11.299689l-0.761776-514.326276a6.602065 6.602065 0 0 0-6.34814-6.602065c-25.811536-0.3428-48.880675 5.624452-69.194723 17.901754-3.61844 2.221849-7.820908 2.551952-11.045763 0.88874-14.130959-7.021042-15.654512-17.393903-4.57066-31.105885 13.458056 1.523554 25.100544-2.374204 34.914768-11.680577l119.0911-44.817866c4.012024-1.548946 7.211487-4.215165 9.014359-7.490805 8.125619-14.98161 24.884707-68.813834 43.294312-66.147615z" fill="#265360" /><path d="M302.501551 136.573877c-29.328405 1.777479-52.562596-23.361154-76.177676-6.34814l-2.666218-12.188428c27.589015 0 53.870313 6.183088 78.843894 18.536568z" fill="#F8DF9D" /><path d="M984.418714 146.603937l20.948861 54.213113c1.548946 3.910454 4.431001 6.970257 7.998656 8.506507 41.643796 17.520865 83.70657 33.480089 126.201017 47.864973 15.362498 5.205475 32.502475 18.155679 12.696279 32.629438a12.340784 12.340784 0 0 1-11.553614 1.269628l-58.021997-21.583675c-4.113595-1.510857-8.354152-0.685599-10.410949 2.031405-2.958233 3.897758-3.212159 8.125619-0.761776 12.696279 2.28533 4.481787 3.427995 8.379544 3.427995 11.680577l-2.539256 447.67081c-0.088874 3.92315 1.409287 7.871693 4.189772 11.045763 2.793181 3.17407 118.202361 117.186658 57.641108 104.236453-3.61844-0.736384-7.236879-3.021714-10.283986-6.475102l-41.262908-45.960532c-6.944865-7.706642-10.537912-6.310051-10.791837 4.189773l-2.28533 82.906704c-0.152355 4.113595-2.793181 7.579679-6.475103 8.506507-4.227861 1.015702-8.163708 0.799866-11.80754-0.634814-3.427995-1.231539-5.967251-4.862675-6.602065-9.395247a282.669963 282.669963 0 0 1 0-85.318997c1.523554-9.484121-1.396591-10.410949-8.760433-2.793181l-50.02334 52.181708c-3.047107 3.123285-7.160702 4.71032-11.172726 4.316735-43.421275-4.189772 54.467038-94.841207 61.957843-102.7129 2.843967-3.009018 4.443698-6.868687 4.443698-10.791838l0.253926-483.855205c0-4.36752-2.107582-8.125619-5.332438-9.52221l-36.438321-15.362498c-4.723016-2.031405-8.252582-4.507179-9.776136-6.85599a255.119037 255.119037 0 0 1-34.026028-75.161974c8.036745-7.452716 17.558954-10.626786 28.566628-9.52221z" fill="#1D4D59" /><path d="M426.290275 226.463534l88.873955 37.073136a90.740308 90.740308 0 0 1 40.247206 17.774791c3.339121 2.615434 5.56097 6.335443 6.221177 10.410949 3.897758 24.795834-8.595381 37.796824-37.454024 38.977578-12.823242-6.855991-142.960105-78.589969-134.96145-38.342764-29.544242-56.282606-17.178066-78.24717 37.073136-65.89369zM771.756036 276.740801a385.103545 385.103545 0 0 0-132.676119 56.498443l-26.281299-9.776135c-4.545268-1.701301-7.947871-4.189772-9.395246-6.855991-13.458056-23.234191-1.777479-38.215801 20.94886-47.103197 38.596689-15.235535 81.345062-31.740698 128.232422-49.515489 17.431992-6.602065 28.52854-0.88874 33.264252 17.139977 3.973935 15.324409-0.723688 28.52854-14.09287 39.612392z" fill="#357DA2" /><path d="M426.290275 226.463534c32.591349 5.243563 62.211769 17.609739 88.873955 37.073136l-88.873955-37.073136z" fill="#CDDEDF" /><path d="M42.227825 229.637604c-9.814224 9.306373-21.456712 13.204131-34.914768 11.680577 8.887396-10.753749 20.529884-14.63881 34.914768-11.680577z" fill="#9DC2C4" /><path d="M524.178589 330.699988l-15.362498 43.040387a4.672231 4.672231 0 0 0 0.672902 4.392912 5.243563 5.243563 0 0 0 4.151684 2.08219l134.453598 0.761777c1.701301 0.025393 3.301033-0.761777 4.316735-2.069494a4.799194 4.799194 0 0 0 0.761777-4.532571l-14.09287-41.135945a385.103545 385.103545 0 0 1 132.676119-56.498443l29.074479 75.669824c-49.858289 25.049759-99.88163 45.325717-150.070022 60.815178l-41.262907 1.269628c-3.72001 0.139659-6.678243 3.427995-6.729028 7.490805l-1.904442 95.476021c-11.337777 4.91346-22.091526 4.024721-32.24855-2.666219l-0.253925-94.460318a6.602065 6.602065 0 0 0-6.34814-6.602065l-46.722308-1.142666c-52.816522-11.845629-104.274542-32.972237-154.386757-63.354433l28.312703-56.879332c-7.998656-40.247205 122.138207 31.486773 134.96145 38.342764z" fill="#1D4D59" /><path d="M360.904436 349.236556c50.112215 30.382196 101.570235 51.508805 154.386757 63.354433 2.031405 27.589015-6.817902 43.129261-26.535224 46.595346-28.312703 5.078512-110.203705-36.311359-140.547812-47.738011-23.107228-8.63347-33.772103-24.757745-20.821898-47.484084 1.447376-2.501167 4.951549-4.900764 9.649172-6.602066l23.869005-8.125618zM800.830515 352.410625c34.53388 2.882055 46.125583 17.863665 34.787806 44.944829a15.18475 15.18475 0 0 1-8.379545 8.252582c-29.963219 12.950205-133.18397 62.465694-159.846157 51.673857-15.578335-6.34814-21.113913-21.037735-16.632126-44.05609 50.188392-15.489461 100.211733-35.765419 150.070022-60.815178zM464.886964 487.879926l-222.057925-31.740698c-4.684927-0.64751-8.925484 0.177748-11.680577 2.28533-3.72001 2.882055-6.221177 6.855991-7.490805 11.934502l-6.34814-9.522209c-76.685527-91.413211 70.845239-60.053401 100.173644-45.706606 19.044419 9.306373 37.16201 16.3782 54.340076 21.202787a229.739175 229.739175 0 0 1 93.063727 51.546894z" fill="#357DA2" /><path d="M464.886964 487.879926c-7.617768 30.598033-8.125619 43.929126-33.899066 64.497099-38.088838 30.47107-67.074444 67.125229-86.969513 109.949779l-149.308245-31.232847 16.251237-109.949779 12.69628-50.785118c1.269628-5.078512 3.770795-9.052447 7.490805-11.934502 2.755093-2.107582 6.99565-2.932841 11.680577-2.28533l222.057925 31.740698z" fill="#1D4D59" /><path d="M217.309517 460.836851l6.34814 9.522209-12.69628 50.785118a121.693837 121.693837 0 0 1 6.34814-60.307327z" fill="#83ACB7" /><path d="M969.056216 547.044588l-241.102344 0.761776c-52.943485-30.090182-23.742042-59.291624 18.790493-58.783773 73.473369 0.926828 146.553152 0.761777 219.264744-0.507851 4.392913-0.088874 8.582685 1.015702 12.061466 3.17407 31.321721 19.387219 28.312703 37.834912-9.014359 55.355778zM568.615566 514.796038c10.157023 6.690939 20.910772 7.579679 32.24855 2.666219 155.402459 33.683229 226.463534 131.190654 213.17053 292.522276-9.738046 13.711982-10.956889 27.6398-3.681921 41.770759l-72.749681 85.699885c-2.52656 3.009018-2.158367 7.935175 0.88874 11.80754l43.802163 55.482741c2.323419 2.996322 2.107582 7.452716-0.507851 10.791837-20.314047 26.662187-54.720964-32.883363-68.813834-50.531192a8.1891 8.1891 0 0 0-9.776135-2.28533c-82.017964 36.946173-161.115785 45.960531-243.006786-1.396591a7.808212 7.808212 0 0 0-9.649173 1.777479c-8.252582 9.522209-61.196066 90.01662-74.019308 49.642453a12.315391 12.315391 0 0 1 2.28533-11.299689l45.198755-56.879331a7.109916 7.109916 0 0 0-0.380889-9.52221c-35.130605-35.460708-60.853267-77.15529-77.193378-125.058351 5.167386-12.277302 3.212159-23.018354-5.840289-32.24855 7.706642-147.187966 83.70657-234.843079 228.025177-262.939945z m191.586855 242.752861a179.652353 179.652353 0 1 0-359.304705 0c0 99.221423 80.43093 179.652353 179.652353 179.652353a179.652353 179.652353 0 0 0 179.652352-179.652353z" fill="#357DA2" /><path d="M969.056216 547.044588l3.17407 97.380462a681.663237 681.663237 0 0 0-159.211343 7.998656c-20.98695-37.16201-49.350438-72.025993-85.065071-104.617342l241.102344-0.761776z" fill="#1D4D59" /><path d="M194.71014 631.093957l149.308245 31.232847-13.965907 42.786461c-1.09188 3.250248-4.976941 5.053119-9.014359 4.189772a140.801738 140.801738 0 0 0-56.117554-0.888739c-8.887396-8.798522-19.641144-11.80754-32.24855-9.014358a203.597535 203.597535 0 0 0-29.455368-7.744731c-41.516833-7.74473-64.751025-36.311359-8.506507-60.561252zM972.230286 644.42505c30.217145 13.039079 34.698931 29.544242 13.458056 49.51549a20.301351 20.301351 0 0 1-11.045763 4.951548l-47.357122 6.34814c-11.515525-6.259266-20.948861-6.602065-28.312703-1.015702l-59.164661-2.920144c-5.002334-0.228533-9.027055-2.298027-10.157024-5.205475l-16.632126-43.675201a681.663237 681.663237 0 0 1 159.211343-7.998656z" fill="#357DA2" /><path d="M232.672015 699.39994c12.607405-2.793181 23.361154 0.215837 32.24855 9.014358-3.808884 21.8376-2.323419 42.875335 4.443697 63.100508 1.29502 3.732706 4.71032 6.221177 8.506507 6.221177h62.71962c9.052447 9.230195 11.007674 19.971247 5.840289 32.24855l-74.019309-1.650517c-25.049759-0.596725-37.834912-14.130959-38.342763-40.628094l-1.396591-68.305982zM927.285457 705.240228c17.26694 79.224783-63.100508 112.615998-116.932732 146.515064-7.274968-14.130959-6.056125-28.058777 3.681921-41.770759 52.65147-17.863665 80.964173-53.108536 84.938108-105.760007 7.363842-5.586363 16.797178-5.243563 28.312703 1.015702z" fill="#265360" /><path d="M580.550069 757.548899m-179.652353 0a179.652353 179.652353 0 1 0 359.304705 0 179.652353 179.652353 0 1 0-359.304705 0Z" fill="#FFC133" /></svg>