<?xml version="1.0" standalone="no"?><!DOCTYPE svg PUBLIC "-//W3C//DTD SVG 1.1//EN" "http://www.w3.org/Graphics/SVG/1.1/DTD/svg11.dtd"><svg class="icon" width="200px" height="151.03px" viewBox="0 0 1356 1024" version="1.1" xmlns="http://www.w3.org/2000/svg"><path d="M241.453091 0.244393l-4.429631 52.850084-232.326523 19.704222c-12.525164-42.371714 0-65.2836 37.575493-68.735658 36.353526-3.36041 102.752171-4.643476 199.180661-3.818648z" fill="#FFC133" /><path d="M241.453091 0.244393l78.511396 0.916476a8.401025 8.401025 0 0 1 8.401024 7.790041l3.513156 37.117255 1.221968 675.900634-5.498853 39.408444a9.622992 9.622992 0 0 1-9.470246 8.248279l-77.289429 1.374713-4.429631-52.850083 3.36041-76.525699c2.657779-17.214464 1.939873-31.160165-2.138443-41.852379 7.637295-25.462743 7.240156-50.925485-1.221967-76.372953 6.72082-14.266468 6.72082-28.257993 0-42.005124 11.608689-24.958681 10.539468-49.336928-3.207664-73.165289 10.295074-15.381513 11.364295-31.725325 3.207664-49.031435 5.605775-24.240775 5.804344-48.634296 0.610984-73.165289 11.608689-26.791632 2.703603-42.9216-26.730534-48.420453 47.962214 9.775738 33.756845-38.339222 26.11955-65.527993 7.438726-17.825447 6.323681-32.290485-3.36041-43.379838 10.997705-26.073726 12.326595-51.276801 3.971394-75.609223l4.429631-52.850084z" fill="#357DA2" /><path d="M427.344859 60.579026a7141.802855 7141.802855 0 0 0-50.100658 683.385184c-15.977222 10.692213-30.701927 3.36041-44.143566-21.995411l-1.221968-675.900634c32.901468-29.541058 64.71844-24.699013 95.466192 14.510861z" fill="#FFC133" /><path d="M513.967062 66.994354a12724.589346 12724.589346 0 0 1-99.284839 688.73129c-1.13032 13.533287-13.594386 9.622992-37.422747-11.761434 5.804344-229.118859 22.499472-456.924103 50.100657-683.385184 31.465657-31.068517 60.334633-28.930075 86.606929 6.415328z" fill="#F4893B" /><path d="M237.038734 53.094477c8.339926 24.332423 7.026312 49.535497-3.971393 75.609223L4.712211 107.166528v-34.367829l232.326523-19.704222z" fill="#1D4D59" /><path d="M629.137475 97.543536c-57.737952 206.817957-111.810003 414.705135-162.216152 623.661534-7.942787 33.145862-0.916475 56.057747 29.785451 70.110371-28.823152-2.138443-56.16467-14.0068-82.024551-35.589797a12724.589346 12724.589346 0 0 0 99.284839-688.73129c13.838779 5.285008 34.917714 4.124139 63.236805-3.513155a10.463095 10.463095 0 0 1 11.455943 4.276885c14.052623 20.559599 27.540087 30.488083 40.477665 29.785452z" fill="#FFC133" /><path d="M717.424609 141.687102l-209.261892 644.587724-11.455943 5.040615c-30.701927-14.052623-37.728239-36.964509-29.785451-70.110371 50.406149-208.956399 104.4782-416.843577 162.216152-623.661534 52.025256-20.987287 81.459392-6.262582 88.287134 44.143566z" fill="#F4893B" /><path d="M233.067341 128.7037c9.668816 11.089353 10.783861 25.55439 3.36041 43.379838-113.551307 6.415328-183.356186 11.501767-209.414637 15.27459-12.830656 1.832951-20.269382 12.005828-22.300903 30.549181-6.109836-36.964509-6.109836-73.883195 0-110.740781l228.35513 21.537172zM813.639255 165.057226l-255.849393 640.310838c-20.467951 3.971394-37.010333-2.398111-49.642419-19.093238l209.261891-644.587724c19.96389-14.571959 40.279095-20.987287 60.945617-19.245984 4.200512 0.244393 7.896963 3.696451 9.164754 8.553771 3.772824 14.862177 12.479341 26.211197 26.11955 34.062337z" fill="#FFC133" /><path d="M882.985896 160.627595c-1.924598 18.635001 5.498853 31.160165 22.300902 37.575493l3.818648 3.818647c-21.537173 23.52287-29.938198 61.709346-40.172173 82.635535-80.344347 165.576562-160.581771 331.198948-240.727548 496.882433-9.974308 20.666521-24.530993 34.978812-43.685329 42.921599-16.191066 3.864471-25.096152-2.505033-26.730534-19.093238l255.849393-640.310838c23.12573-10.600566 46.236186-12.066927 69.346641-4.429631z" fill="#F4893B" /><path d="M882.985896 160.627595l22.300902 37.575493c-16.80205-6.415328-24.225501-18.940492-22.300902-37.575493z" fill="#F8DF9D" /><path d="M236.412476 172.083538c7.637295 27.188771 21.842665 75.303732-26.11955 65.527993l-205.595989-12.066926v-7.637296c2.046795-18.543353 9.470246-28.71623 22.300902-30.549181 26.073726-3.772824 95.878605-8.859263 209.414637-15.27459z" fill="#1D4D59" /><path d="M1023.664876 249.067474l-7.179058 2.138443c-4.719848 1.374713-8.706517 4.368533-11.150451 8.401025l-356.508945 588.37723-64.306026-23.52287c19.154337-7.942787 33.711021-22.255079 43.685329-42.921599 80.145777-165.683484 160.383201-331.30587 240.727548-496.882433 10.233976-20.926189 18.635001-59.112666 40.172173-82.635535l56.821477-2.902172a12.341869 12.341869 0 0 1 11.455943 6.109836l17.107541 31.771149c2.749426 5.162812 6.445877 8.859263 10.233976 10.233975 5.804344 2.138443 12.128025 2.749426 18.940493 1.832951zM210.308201 237.611531c29.418861 5.498853 38.339222 21.62882 26.730533 48.420453-62.534174 9.164754-125.358565 15.47316-188.488448 18.940492-46.434755 2.443934-55.59951 41.088649-7.331803 44.143567 65.069756 4.063041 130.139512 7.423451 195.209268 10.08123 8.141357 17.306111 7.072135 33.649923-3.207664 49.031435-75.868892 0.19857-150.760209 8.034435-224.689228 23.52287l-3.818648-206.206973 205.59599 12.066926z" fill="#FFC133" /><path d="M1093.026791 301.917558l-401.568986 561.952188-42.616108-15.885574 356.508944-588.37723c2.443934-4.032492 6.415328-7.026312 11.150452-8.401025l7.179057-2.138443c43.578407-11.211549 66.688863 6.415328 69.346641 52.850084z" fill="#F4893B" /><path d="M237.038734 286.031984c5.193361 24.530993 4.979517 48.924514-0.610983 73.165289a8945.869476 8945.869476 0 0 1-195.209268-10.08123c-48.267706-3.054918-39.102952-41.699632 7.331803-44.143567 63.129883-3.467332 125.954274-9.775738 188.488448-18.940492z" fill="#1D4D59" /><path d="M1184.048077 348.352313l-442.963128 523.154728-49.642419-7.637295 401.568987-561.952188 57.585206-1.374713c4.185238-0.122197 8.049709 3.16184 9.317501 7.942787a77.564371 77.564371 0 0 0 24.133853 39.866681z" fill="#FFC133" /><path d="M1299.233765 527.217769c-45.823772-30.243689-93.327749-75.303732-143.27566-16.649304a24990.146696 24990.146696 0 0 0-261.653737 313.281854c-16.60348 20.16246-19.245984 42.050948-7.942787 65.680739 9.561894 20.055537 28.609308 40.783157 57.126968 62.167584-18.543353 26.776357-41.913477 50.192305-70.11037 70.263117a11.226824 11.226824 0 0 1-12.677911 0.152746c-47.458153-31.160165-89.463277-66.749961-126.015372-106.769389-3.604803-3.895021-5.453029-8.721791-5.040615-13.288894 0.809553-11.303197 4.628201-21.491349 11.455943-30.549181l442.963127-523.154728c6.308406-12.433517 16.847873-19.307083 31.618403-20.620697 4.506004-0.504061 9.454972 0.916475 13.899877 3.971393a712.147238 712.147238 0 0 1 123.265947 105.394676c3.238213 3.406234 4.124139 8.401025 2.291188 12.67791-13.0445 30.747751-31.679501 56.561809-55.905001 77.442174z" fill="#357DA2" /><path d="M233.220087 408.228708c13.747132 23.828361 14.816353 48.206608 3.207664 73.165289l-228.507876-23.675615 0.610984-25.966804a1108.11045 1108.11045 0 0 1 224.689228-23.52287z" fill="#1D4D59" /><path d="M7.904601 457.718382l228.507875 23.675615c6.72082 13.747132 6.72082 27.738657 0 42.005124l-227.896892 22.911886c-6.812467-32.183562-7.026312-61.709346-0.610983-88.592625z" fill="#FFC133" /><path d="M1299.233765 527.217769l-355.745216 424.480873c-28.517661-21.384427-47.565075-42.112046-57.126968-62.167584-11.303197-23.629792-8.660693-45.51828 7.942787-65.680739a24990.146696 24990.146696 0 0 1 261.653737-313.281854c49.947911-58.654428 97.451888-13.594386 143.27566 16.649304zM236.412476 523.399121c8.462123 25.447468 8.859263 50.91021 1.221967 76.372953l-229.729842-19.704221 0.610983-33.756846 227.896892-22.911886z" fill="#1D4D59" /><path d="M237.634443 599.772074c4.078316 10.692213 4.796221 24.637915 2.138443 41.852379l-231.257302 23.064632a177.490743 177.490743 0 0 1-0.610983-84.621232l229.729842 19.704221z" fill="#FFC133" /><path d="M239.772886 641.624453l-3.36041 76.525699-224.689228-26.272296-3.207664-27.188771z" fill="#1D4D59" /><path d="M11.723248 691.877856l224.689228 26.272296 4.429631 52.850083c-41.546886 0.305492-200.249883 8.706517-225.911195-20.009714-14.358115-15.992496-15.427337-35.696718-3.207664-59.112665z" fill="#FFC133" /></svg>